<?xml version="1.0" encoding="UTF-8"?><svg id="Capa_1" xmlns="http://www.w3.org/2000/svg" viewBox="0 0 269.33 120"><defs><style>.cls-1{fill:#ea525f;}.cls-1,.cls-2{stroke-width:0px;}.cls-2{fill:#010101;}</style></defs><path class="cls-2" d="m52.89,11.08c6.97,6.72,10.46,16.08,10.46,28.07s-3.49,21.31-10.46,27.96c-6.97,6.65-16.89,9.97-29.75,9.97H1.79V1h21.35c12.86,0,22.78,3.36,29.75,10.08Zm-3.52,52.94c6-5.96,9-14.25,9-24.87s-3-19.04-9-25.03c-6-6-14.74-8.99-26.23-8.99H6.67v67.84h16.47c11.49,0,20.23-2.98,26.23-8.94Z"/><path class="cls-2" d="m63.17,77.08h-5.31L85.82,2.73h5.42l27.85,74.34h-5.31L88.53,9.17m0-.04l-16.58,44.32"/><path class="cls-2" d="m162.42,1l-29.04,76.08h-5.42L99.02,1h5.31l26.33,70.33L157.22,1h5.2Z"/><path class="cls-2" d="m171.51,1v76.08h-4.88V1h4.88Z"/><path class="cls-2" d="m183.62,72.96h28.28v4.12h-33.16V1h4.88v71.96Z"/><path class="cls-1" d="m212.35,77.08h-5.31L235,2.73h5.42l27.85,74.34h-5.31L237.61,6.64m15.96,46.88l-15.86-44.39-16.06,44.39h31.93Z"/><path class="cls-1" d="m23.21,85.52v24.14h-1.52v-20.83l-8.93,20.83h-1.22l-8.96-20.83v20.83h-1.52v-24.14h1.62l9.47,22.06,9.47-22.06h1.59Z"/><path class="cls-1" d="m28.97,94.93c.75-1.48,1.8-2.61,3.14-3.41,1.34-.8,2.87-1.19,4.58-1.19,1.94,0,3.58.49,4.94,1.48,1.35.98,2.3,2.24,2.84,3.76v-4.99h1.52v19.08h-1.52v-5.02c-.54,1.55-1.49,2.82-2.86,3.81-1.36,1-3,1.49-4.92,1.49-1.71,0-3.24-.4-4.58-1.21-1.34-.81-2.39-1.96-3.14-3.44-.76-1.49-1.13-3.21-1.13-5.18s.38-3.69,1.13-5.16Zm14.51.76c-.67-1.28-1.57-2.26-2.72-2.95-1.15-.69-2.43-1.04-3.85-1.04s-2.8.33-3.92,1c-1.13.67-2.01,1.63-2.64,2.9-.63,1.27-.95,2.76-.95,4.5s.32,3.23.95,4.5c.63,1.26,1.52,2.24,2.65,2.92,1.14.68,2.44,1.02,3.91,1.02s2.71-.35,3.87-1.04c1.16-.69,2.07-1.67,2.72-2.95.65-1.28.98-2.76.98-4.44s-.33-3.13-1-4.41Z"/><path class="cls-1" d="m55.47,91.3c1.15-.74,2.62-1.11,4.4-1.11v1.65h-.51c-1.8,0-3.3.53-4.5,1.6-1.2,1.07-1.79,2.81-1.79,5.22v11h-1.52v-19.08h1.52v3.93c.45-1.41,1.25-2.48,2.4-3.21Z"/><path class="cls-1" d="m72.92,109.65l-8.01-8.75v8.75h-1.52v-26h1.52v15.56l7.88-8.64h2.13l-8.89,9.49,9,9.59h-2.1Z"/><path class="cls-1" d="m94.63,100.73h-15.86c.04,1.71.41,3.15,1.08,4.32.68,1.17,1.57,2.05,2.67,2.64,1.1.59,2.31.88,3.62.88,1.8,0,3.31-.46,4.53-1.39,1.22-.92,1.98-2.18,2.3-3.78h1.59c-.36,1.94-1.29,3.52-2.77,4.73-1.49,1.21-3.37,1.81-5.65,1.81-1.71,0-3.25-.4-4.6-1.19-1.35-.8-2.41-1.94-3.18-3.43-.77-1.49-1.15-3.23-1.15-5.22s.38-3.72,1.13-5.2c.75-1.48,1.81-2.61,3.16-3.39,1.35-.78,2.9-1.18,4.63-1.18s3.29.39,4.58,1.18c1.3.79,2.28,1.83,2.96,3.13s1.01,2.7,1.01,4.2c0,.84-.02,1.48-.07,1.9Zm-2.32-5.59c-.64-1.17-1.52-2.04-2.62-2.62-1.1-.57-2.3-.86-3.58-.86s-2.47.29-3.57.86c-1.09.57-1.98,1.45-2.67,2.62-.69,1.17-1.05,2.6-1.1,4.29h14.41c.07-1.69-.22-3.11-.86-4.29Z"/><path class="cls-1" d="m101.56,91.95v12.61c0,1.41.25,2.37.74,2.9.5.53,1.37.79,2.64.79h2.06v1.41h-2.3c-1.6,0-2.78-.39-3.53-1.18-.76-.78-1.13-2.09-1.13-3.92v-12.61h-2.77v-1.37h2.77v-4.85h1.52v4.85h5.44v1.37h-5.44Z"/><path class="cls-1" d="m110.89,85.96c-.25-.25-.37-.58-.37-1,0-.4.12-.73.37-.98.25-.26.55-.39.91-.39s.66.13.91.39c.25.26.37.59.37.98,0,.42-.12.76-.37,1-.25.25-.55.37-.91.37s-.67-.12-.91-.37Zm1.66,4.62v19.08h-1.52v-19.08h1.52Z"/><path class="cls-1" d="m131.76,92.28c1.37,1.39,2.06,3.46,2.06,6.2v11.17h-1.49v-11.07c0-2.27-.55-4.01-1.66-5.22-1.1-1.21-2.6-1.81-4.5-1.81s-3.57.66-4.75,1.97c-1.18,1.31-1.78,3.26-1.78,5.83v10.29h-1.52v-19.08h1.52v4.04c.52-1.43,1.38-2.52,2.59-3.29,1.21-.76,2.6-1.14,4.18-1.14,2.19,0,3.97.7,5.34,2.09Z"/><path class="cls-1" d="m152.05,91.79c1.35.97,2.3,2.22,2.84,3.74v-4.95h1.52v19.67c0,1.76-.37,3.3-1.12,4.62-.74,1.32-1.75,2.34-3.01,3.06-1.26.71-2.67,1.07-4.23,1.07-2.3,0-4.21-.57-5.72-1.72-1.51-1.15-2.5-2.69-2.98-4.64h1.52c.45,1.52,1.3,2.73,2.54,3.64,1.24.9,2.78,1.35,4.63,1.35,1.28,0,2.45-.3,3.48-.9,1.04-.6,1.85-1.45,2.45-2.56.6-1.11.9-2.42.9-3.92v-5.59c-.54,1.52-1.49,2.78-2.86,3.78-1.36,1-3,1.49-4.92,1.49-1.71,0-3.24-.4-4.58-1.21-1.34-.81-2.39-1.96-3.14-3.44-.76-1.49-1.13-3.21-1.13-5.18s.38-3.69,1.13-5.16c.75-1.48,1.8-2.61,3.14-3.41,1.34-.8,2.87-1.19,4.58-1.19,1.94,0,3.58.49,4.94,1.46Zm1.84,3.9c-.67-1.28-1.57-2.26-2.72-2.95-1.15-.69-2.43-1.04-3.85-1.04s-2.8.33-3.92,1c-1.13.67-2.01,1.63-2.64,2.9-.63,1.27-.95,2.76-.95,4.5s.32,3.23.95,4.5c.63,1.26,1.52,2.24,2.65,2.92,1.14.68,2.44,1.02,3.91,1.02s2.71-.35,3.87-1.04c1.16-.69,2.07-1.67,2.72-2.95.65-1.28.98-2.76.98-4.44s-.33-3.13-1-4.41Z"/><path class="cls-1" d="m187.44,88.26c2.18,2.18,3.26,5.21,3.26,9.1s-1.09,6.91-3.26,9.06c-2.18,2.16-5.27,3.23-9.28,3.23h-6.66v-24.66h6.66c4.01,0,7.11,1.09,9.28,3.27Zm-1.1,17.16c1.87-1.93,2.81-4.62,2.81-8.06s-.94-6.17-2.81-8.12c-1.87-1.94-4.6-2.92-8.18-2.92h-5.14v21.99h5.14c3.58,0,6.31-.97,8.18-2.9Z"/><path class="cls-1" d="m195.16,85.96c-.25-.25-.37-.58-.37-1,0-.4.12-.73.37-.98.25-.26.55-.39.91-.39s.66.13.91.39c.25.26.37.59.37.98,0,.42-.12.76-.37,1-.25.25-.55.37-.91.37s-.67-.12-.91-.37Zm1.66,4.62v19.08h-1.52v-19.08h1.52Z"/><path class="cls-1" d="m215.25,91.79c1.35.97,2.3,2.22,2.84,3.74v-4.95h1.52v19.67c0,1.76-.37,3.3-1.12,4.62-.74,1.32-1.75,2.34-3.01,3.06-1.26.71-2.67,1.07-4.23,1.07-2.3,0-4.21-.57-5.72-1.72-1.51-1.15-2.5-2.69-2.98-4.64h1.52c.45,1.52,1.3,2.73,2.54,3.64,1.24.9,2.78,1.35,4.63,1.35,1.28,0,2.45-.3,3.48-.9,1.04-.6,1.85-1.45,2.45-2.56.6-1.11.9-2.42.9-3.92v-5.59c-.54,1.52-1.49,2.78-2.86,3.78-1.36,1-3,1.49-4.92,1.49-1.71,0-3.24-.4-4.58-1.21-1.34-.81-2.39-1.96-3.14-3.44-.76-1.49-1.13-3.21-1.13-5.18s.38-3.69,1.13-5.16c.75-1.48,1.8-2.61,3.14-3.41,1.34-.8,2.87-1.19,4.58-1.19,1.94,0,3.58.49,4.94,1.46Zm1.84,3.9c-.67-1.28-1.57-2.26-2.72-2.95-1.15-.69-2.43-1.04-3.85-1.04s-2.8.33-3.92,1c-1.13.67-2.01,1.63-2.64,2.9-.63,1.27-.95,2.76-.95,4.5s.32,3.23.95,4.5c.63,1.26,1.52,2.24,2.65,2.92,1.14.68,2.44,1.02,3.91,1.02s2.71-.35,3.87-1.04c1.16-.69,2.07-1.67,2.72-2.95.65-1.28.98-2.76.98-4.44s-.33-3.13-1-4.41Z"/><path class="cls-1" d="m225.02,85.96c-.25-.25-.37-.58-.37-1,0-.4.12-.73.37-.98.25-.26.55-.39.91-.39s.66.13.91.39c.25.26.37.59.37.98,0,.42-.12.76-.37,1-.25.25-.55.37-.91.37s-.67-.12-.91-.37Zm1.66,4.62v19.08h-1.52v-19.08h1.52Z"/><path class="cls-1" d="m234.53,91.95v12.61c0,1.41.25,2.37.74,2.9.5.53,1.37.79,2.64.79h2.06v1.41h-2.3c-1.6,0-2.78-.39-3.53-1.18-.76-.78-1.13-2.09-1.13-3.92v-12.61h-2.77v-1.37h2.77v-4.85h1.52v4.85h5.44v1.37h-5.44Z"/><path class="cls-1" d="m244.18,94.93c.75-1.48,1.8-2.61,3.14-3.41,1.34-.8,2.87-1.19,4.58-1.19,1.94,0,3.58.49,4.94,1.48,1.35.98,2.3,2.24,2.84,3.76v-4.99h1.52v19.08h-1.52v-5.02c-.54,1.55-1.49,2.82-2.86,3.81-1.36,1-3,1.49-4.92,1.49-1.71,0-3.24-.4-4.58-1.21-1.34-.81-2.39-1.96-3.14-3.44-.76-1.49-1.13-3.21-1.13-5.18s.38-3.69,1.13-5.16Zm14.51.76c-.67-1.28-1.57-2.26-2.72-2.95-1.15-.69-2.43-1.04-3.85-1.04s-2.8.33-3.92,1c-1.13.67-2.01,1.63-2.64,2.9-.63,1.27-.95,2.76-.95,4.5s.32,3.23.95,4.5c.63,1.26,1.52,2.24,2.65,2.92,1.14.68,2.44,1.02,3.91,1.02s2.71-.35,3.87-1.04c1.16-.69,2.07-1.67,2.72-2.95.65-1.28.98-2.76.98-4.44s-.33-3.13-1-4.41Z"/><path class="cls-1" d="m268.27,83.66v26h-1.52v-26h1.52Z"/></svg>