<?xml version="1.0" encoding="UTF-8"?><svg id="Capa_1" xmlns="http://www.w3.org/2000/svg" viewBox="0 0 268.33 80"><defs><style>.cls-1{fill:#ea525f;}.cls-1,.cls-2{stroke-width:0px;}.cls-2{fill:#010101;}</style></defs><path class="cls-2" d="m52.04,10.6c6.98,7.07,10.48,16.91,10.48,29.52s-3.49,22.41-10.48,29.4c-6.99,6.99-16.92,10.48-29.8,10.48H.85V0h21.39c12.88,0,22.81,3.53,29.8,10.6Zm-3.53,55.67c6.01-6.27,9.01-14.99,9.01-26.15s-3-20.02-9.01-26.33c-6.01-6.31-14.76-9.46-26.27-9.46H5.73v71.34h16.5c11.51,0,20.26-3.13,26.27-9.4Z"/><path class="cls-2" d="m62.33,80h-5.32L85.02,1.82h5.43l27.9,78.18h-5.32L87.74,8.59m0-.04l-16.61,46.61"/><path class="cls-2" d="m161.76,0l-29.09,80h-5.43L98.25,0h5.32l26.38,73.96L156.55,0h5.21Z"/><path class="cls-2" d="m170.86,0v80h-4.89V0h4.89Z"/><path class="cls-2" d="m182.99,75.67h28.33v4.33h-33.22V0h4.89v75.67Z"/><path class="cls-1" d="m211.78,80h-5.32L234.46,1.82h5.43l27.9,78.18h-5.32L237.08,5.93m15.99,49.3l-15.89-46.68-16.09,46.68h31.98Z"/></svg>